<?xml version="1.0" encoding="UTF-8" standalone="no"?>
<svg
   xmlns:dc="http://purl.org/dc/elements/1.1/"
   xmlns:cc="http://creativecommons.org/ns#"
   xmlns:rdf="http://www.w3.org/1999/02/22-rdf-syntax-ns#"
   xmlns:svg="http://www.w3.org/2000/svg"
   xmlns="http://www.w3.org/2000/svg"
   xmlns:sodipodi="http://sodipodi.sourceforge.net/DTD/sodipodi-0.dtd"
   xmlns:inkscape="http://www.inkscape.org/namespaces/inkscape"
   version="1.1"
   id="Layer_1"
   x="0px"
   y="0px"
   width="122.878px"
   height="88.858px"
   viewBox="0 0 122.878 88.858"
   enable-background="new 0 0 122.878 88.858"
   xml:space="preserve"
   sodipodi:docname="wifi.svg"
   inkscape:version="0.92.5 (2060ec1f9f, 2020-04-08)"><metadata
     id="metadata11"><rdf:RDF><cc:Work
         rdf:about=""><dc:format>image/svg+xml</dc:format><dc:type
           rdf:resource="http://purl.org/dc/dcmitype/StillImage" /></cc:Work></rdf:RDF></metadata><defs
     id="defs9" /><sodipodi:namedview
     pagecolor="#ffffff"
     bordercolor="#666666"
     borderopacity="1"
     objecttolerance="10"
     gridtolerance="10"
     guidetolerance="10"
     inkscape:pageopacity="0"
     inkscape:pageshadow="2"
     inkscape:window-width="640"
     inkscape:window-height="480"
     id="namedview7"
     showgrid="false"
     inkscape:zoom="2.6559229"
     inkscape:cx="61.438999"
     inkscape:cy="44.429001"
     inkscape:window-x="0"
     inkscape:window-y="25"
     inkscape:window-maximized="0"
     inkscape:current-layer="Layer_1" /><g
     id="g4"
     style="fill: #fff;"><path
       d="M17.215,43.332l10.399,10.57c1.096-1.28,2.282-2.497,3.551-3.642c7.666-6.908,18.284-11.183,30.038-11.183v0.029h0.001h0 v-0.029c11.754,0,22.373,4.275,30.039,11.184c1.416,1.276,2.73,2.644,3.93,4.09l10.489-10.489 c-1.408-1.612-2.919-3.146-4.525-4.594c-10.243-9.233-24.363-14.944-39.932-14.944v-0.029h0h-0.001v0.029 c-15.567,0-29.688,5.711-39.931,14.944C19.843,40.555,18.489,41.913,17.215,43.332L17.215,43.332z M61.656,48.555L61.656,48.555 l0.001,0.028c10.656,0.001,20.332,3.913,27.358,10.237l0.003,0.002l-8.575,8.575l-1.977,1.848 c-4.388-3.666-10.294-5.908-16.81-5.908v0.029h-0.001h-0.001v-0.029c-6.846,0-13.019,2.476-17.464,6.477 c-0.111,0.1-0.221,0.2-0.33,0.302L33.86,59.221c0.145-0.135,0.29-0.268,0.438-0.4C41.324,52.496,51,48.584,61.655,48.583 L61.656,48.555L61.656,48.555L61.656,48.555z M61.933,71.679c4.264,0,8.143,1.648,11.036,4.341L60.5,88.858L49.909,77.021 C52.875,73.74,57.163,71.679,61.933,71.679L61.933,71.679z M10.005,34.716c0.629-0.616,1.272-1.22,1.929-1.813 c12.421-11.195,29.61-18.121,48.619-18.121v0.029h0.001l0,0v-0.029c19.01,0,36.198,6.926,48.619,18.122 c1.122,1.011,2.204,2.058,3.246,3.137l10.458-10.458c-1.226-1.262-2.496-2.487-3.811-3.672 C104.068,8.392,83.378,0.029,60.555,0.029V0l0,0h-0.001v0.029c-22.823,0-43.513,8.363-58.512,21.882 C1.348,22.535,0.668,23.171,0,23.818L10.005,34.716L10.005,34.716z"
       id="path2"
       style="fill: #fff;" /></g></svg>